<svg width="24" height="24" viewBox="0 0 24 24" fill="none" xmlns="http://www.w3.org/2000/svg">
<g filter="url(#filter0_d_1_5)">
<path d="M20 8.375C20 8.93437 19.8656 9.45313 19.5969 9.92813C19.3281 10.4031 18.9688 10.775 18.5156 11.0344C18.5281 11.1188 18.5344 11.25 18.5344 11.4281C18.5344 12.275 18.25 12.9937 17.6875 13.5875C17.1219 14.1844 16.4406 14.4812 15.6438 14.4812C15.2875 14.4812 14.9469 14.4156 14.625 14.2844C14.375 14.7969 14.0156 15.2094 13.5437 15.525C13.075 15.8437 12.5594 16 12 16C11.4281 16 10.9094 15.8469 10.4469 15.5344C9.98125 15.225 9.625 14.8094 9.375 14.2844C9.05312 14.4156 8.71562 14.4812 8.35625 14.4812C7.55937 14.4812 6.875 14.1844 6.30312 13.5875C5.73125 12.9937 5.44687 12.2719 5.44687 11.4281C5.44687 11.3344 5.45938 11.2031 5.48125 11.0344C5.02813 10.7719 4.66875 10.4031 4.4 9.92813C4.13438 9.45313 4 8.93437 4 8.375C4 7.78125 4.15 7.23437 4.44688 6.74062C4.74375 6.24687 5.14375 5.88125 5.64375 5.64375C5.5125 5.2875 5.44687 4.92813 5.44687 4.57188C5.44687 3.72813 5.73125 3.00625 6.30312 2.4125C6.875 1.81875 7.55937 1.51875 8.35625 1.51875C8.7125 1.51875 9.05312 1.58438 9.375 1.71563C9.625 1.20313 9.98438 0.790625 10.4563 0.475C10.925 0.159375 11.4406 0 12 0C12.5594 0 13.075 0.159375 13.5437 0.471875C14.0125 0.7875 14.375 1.2 14.625 1.7125C14.9469 1.58125 15.2844 1.51562 15.6438 1.51562C16.4406 1.51562 17.1219 1.8125 17.6875 2.40937C18.2531 3.00625 18.5344 3.725 18.5344 4.56875C18.5344 4.9625 18.475 5.31875 18.3562 5.64062C18.8562 5.87812 19.2563 6.24375 19.5531 6.7375C19.85 7.23438 20 7.78125 20 8.375ZM11.6594 10.7844L14.9625 5.8375C15.0469 5.70625 15.0719 5.5625 15.0437 5.40938C15.0125 5.25625 14.9344 5.13437 14.8031 5.05312C14.6719 4.96875 14.5281 4.94063 14.375 4.9625C14.2188 4.9875 14.0938 5.0625 14 5.19375L11.0906 9.56875L9.75 8.23125C9.63125 8.1125 9.49375 8.05625 9.34062 8.0625C9.18437 8.06875 9.05 8.125 8.93125 8.23125C8.825 8.3375 8.77187 8.47187 8.77187 8.63437C8.77187 8.79375 8.825 8.92813 8.93125 9.0375L10.7719 10.8781L10.8625 10.95C10.9688 11.0219 11.0781 11.0562 11.1844 11.0562C11.3937 11.0531 11.5531 10.9656 11.6594 10.7844Z" fill="#E7AE4F"/>
<path d="M15.3784 6.1152L15.3783 6.11515L12.0822 11.0515C11.8822 11.3822 11.5612 11.5507 11.1918 11.5562L11.1844 11.5563V11.5562C10.9662 11.5562 10.7607 11.4848 10.5823 11.3641L10.5667 11.3535L10.5518 11.3418L10.4612 11.2699L10.4387 11.252L10.4183 11.2317L8.5777 9.39105L8.57257 9.38593L8.57261 9.38589C8.37127 9.17863 8.27187 8.91733 8.27187 8.63437C8.27187 8.35119 8.36957 8.08582 8.5777 7.8777L8.58751 7.86788L8.59785 7.85863C8.79911 7.67856 9.04292 7.5741 9.32023 7.56292C9.32037 7.56291 9.32051 7.5629 9.32064 7.5629L9.34062 8.0625C9.49375 8.05625 9.63125 8.1125 9.75 8.23125L15.3784 6.1152ZM15.3784 6.1152L15.3831 6.10788C15.5404 5.86317 15.5851 5.58912 15.5355 5.31905L15.5356 5.31903L15.5337 5.3094C15.4782 5.03781 15.3287 4.7919 15.07 4.6303C14.8327 4.47892 14.5679 4.42986 14.3043 4.46753L14.3043 4.46746L14.296 4.46878C14.0113 4.51433 13.7667 4.66011 13.5931 4.90313L13.5883 4.90993L13.5837 4.91688L11.012 8.78403L10.1036 7.8777L15.3784 6.1152ZM18.2672 10.6004L17.971 10.77L18.021 11.1076C18.0278 11.1536 18.0344 11.2541 18.0344 11.4281C18.0344 12.1504 17.7968 12.7451 17.3246 13.2436C16.8505 13.7439 16.2992 13.9812 15.6438 13.9812C15.3503 13.9812 15.074 13.9275 14.8138 13.8214L14.3807 13.6448L14.1756 14.0652C13.9642 14.4987 13.6637 14.8432 13.2658 15.1094L13.2658 15.1094L13.2626 15.1115C12.8774 15.3734 12.4599 15.5 12 15.5C11.523 15.5 11.1027 15.3741 10.7268 15.1201L10.7236 15.1179C10.3366 14.8608 10.0392 14.5162 9.82643 14.0694L9.62343 13.6431L9.18621 13.8214C8.92578 13.9276 8.65254 13.9812 8.35625 13.9812C7.70063 13.9812 7.14519 13.7437 6.66416 13.2416L6.66325 13.2406C6.18426 12.7433 5.94687 12.1471 5.94687 11.4281C5.94687 11.3692 5.95547 11.2655 5.9771 11.0987L6.01989 10.7686L5.73189 10.6017C5.36005 10.3863 5.06293 10.0841 4.83578 9.68297C4.61311 9.28437 4.5 8.85024 4.5 8.375C4.5 7.86954 4.62655 7.41212 4.87538 6.99827C5.1234 6.58578 5.45029 6.28918 5.85828 6.09539L6.27081 5.89944L6.11292 5.4709C6.0009 5.16684 5.94687 4.86587 5.94687 4.57188C5.94687 3.85287 6.18426 3.25666 6.66325 2.75936C7.14551 2.25865 7.70178 2.01875 8.35625 2.01875C8.64971 2.01875 8.92605 2.07253 9.18621 2.17861L9.61932 2.35522L9.82438 1.93484C10.0358 1.50135 10.3363 1.15679 10.7342 0.890603L10.7355 0.889745C11.1232 0.628707 11.5419 0.5 12 0.5C12.4579 0.5 12.8771 0.628614 13.2655 0.887272C13.6619 1.15444 13.9649 1.49972 14.1756 1.93171L14.3807 2.3521L14.8138 2.17549C15.0742 2.06929 15.3475 2.01562 15.6438 2.01562C16.2992 2.01562 16.8505 2.25299 17.3246 2.7533C17.7994 3.25435 18.0344 3.84884 18.0344 4.56875C18.0344 4.91179 17.9828 5.20842 17.8872 5.46756L17.729 5.89622L18.1417 6.09226C18.5495 6.28596 18.8763 6.58236 19.1242 6.99451C19.3737 7.41221 19.5 7.87001 19.5 8.375C19.5 8.85059 19.3867 9.28416 19.1617 9.68191C18.9336 10.085 18.6363 10.3892 18.2672 10.6004Z" stroke="black"/>
</g>
<defs>
<filter id="filter0_d_1_5" x="0" y="0" width="24" height="24" filterUnits="userSpaceOnUse" color-interpolation-filters="sRGB">
<feFlood flood-opacity="0" result="BackgroundImageFix"/>
<feColorMatrix in="SourceAlpha" type="matrix" values="0 0 0 0 0 0 0 0 0 0 0 0 0 0 0 0 0 0 127 0" result="hardAlpha"/>
<feOffset dy="4"/>
<feGaussianBlur stdDeviation="2"/>
<feComposite in2="hardAlpha" operator="out"/>
<feColorMatrix type="matrix" values="0 0 0 0 0 0 0 0 0 0 0 0 0 0 0 0 0 0 0.25 0"/>
<feBlend mode="normal" in2="BackgroundImageFix" result="effect1_dropShadow_1_5"/>
<feBlend mode="normal" in="SourceGraphic" in2="effect1_dropShadow_1_5" result="shape"/>
</filter>
</defs>
</svg>
